<?xml version="1.0" encoding="UTF-8" standalone="no"?>
<!-- Created with Inkscape (http://www.inkscape.org/) -->

<svg
   xmlns:dc="http://purl.org/dc/elements/1.1/"
   xmlns:cc="http://creativecommons.org/ns#"
   xmlns:rdf="http://www.w3.org/1999/02/22-rdf-syntax-ns#"
   xmlns:svg="http://www.w3.org/2000/svg"
   xmlns="http://www.w3.org/2000/svg"
   xmlns:sodipodi="http://sodipodi.sourceforge.net/DTD/sodipodi-0.dtd"
   xmlns:inkscape="http://www.inkscape.org/namespaces/inkscape"
   width="531"
   height="225"
   viewBox="0 0 531.00001 225"
   id="svg5472"
   version="1.1"
   inkscape:version="0.91 r13725"
   sodipodi:docname="pyladies_wordmark_blank.svg">
  <defs
     id="defs5474">
    <clipPath
       id="SVGID_4_">
      <rect
         height="1190.549"
         width="841.89001"
         y="0.001"
         id="use97"
         x="0" />
    </clipPath>
    <clipPath
       id="clipPath5449">
      <rect
         height="1190.549"
         width="841.89001"
         y="0.001"
         id="use5451"
         x="0" />
    </clipPath>
    <clipPath
       id="clipPath5453">
      <rect
         height="1190.549"
         width="841.89001"
         y="0.001"
         id="use5455"
         x="0" />
    </clipPath>
    <clipPath
       id="clipPath5457">
      <rect
         height="1190.549"
         width="841.89001"
         y="0.001"
         id="use5459"
         x="0" />
    </clipPath>
    <clipPath
       id="SVGID_4_-3">
      <rect
         height="1190.549"
         width="841.89001"
         y="0.001"
         id="use97-6"
         x="0" />
    </clipPath>
  </defs>
  <sodipodi:namedview
     id="base"
     pagecolor="#ffffff"
     bordercolor="#666666"
     borderopacity="1.0"
     inkscape:pageopacity="0.0"
     inkscape:pageshadow="2"
     inkscape:zoom="0.35"
     inkscape:cx="483.31724"
     inkscape:cy="236.27076"
     inkscape:document-units="px"
     inkscape:current-layer="layer2"
     showgrid="false"
     units="px"
     inkscape:window-width="608"
     inkscape:window-height="430"
     inkscape:window-x="282"
     inkscape:window-y="53"
     inkscape:window-maximized="0" />
  <metadata
     id="metadata5477">
    <rdf:RDF>
      <cc:Work
         rdf:about="">
        <dc:format>image/svg+xml</dc:format>
        <dc:type
           rdf:resource="http://purl.org/dc/dcmitype/StillImage" />
        <dc:title />
      </cc:Work>
    </rdf:RDF>
  </metadata>
  <g
     inkscape:groupmode="layer"
     id="layer2"
     inkscape:label="Camada 2"
     style="display:inline"
     transform="translate(0,-827.36216)">
    <path
       transform="translate(-156.65879,268.41338)"
       style="fill:#ffffff"
       inkscape:connector-curvature="0"
       clip-path="url(#SVGID_4_-3)"
       d="m 370.711,560.296 c -32.647,1.703 -28.157,101.9 -28.157,101.9 0,0 -1.388,11.062 -6.058,17.428 -4.67,6.369 -12.492,10.924 -14.471,8.925 l 12.16,-53.539 -17.939,0 c 0,0 -9.559,53.596 -20.02,55.574 -10.461,1.98 -7.492,-8.956 -7.492,-20.166 0,-16.508 2.248,-34.606 -9.707,-36.101 -11.957,-1.495 -24.691,18.91 -24.691,18.91 0,0 1.507,-11.962 -10.45,-17.941 -11.953,-5.977 -41.84,8.971 -41.84,8.971 2.784,-12.62 -2.271,-28.542 -16.46,-28.388 -12.53,0.755 -21.36,9.479 -29.868,16.412 l 11.975,11.976 c 0,0 11.916,-13.438 17.893,-5.965 5.976,7.472 -23.012,146.214 -23.012,146.214 l 17.939,0 17.047,-71.498 c 0,0 38.856,3.004 46.326,-5.965 7.475,-8.967 13.455,-32.873 13.455,-32.873 0,0 16.452,-17.965 14.957,-11.988 -1.496,5.978 -3.009,46.328 4.461,47.82 7.475,1.497 22.426,0 22.426,0 l -18.125,58.116 -20.713,1.667 -3.006,14.979 34.401,0 24.135,-75.132 c 0,0 10.832,-1.552 16.966,-4.902 6.135,-3.348 10.928,-9.273 15.35,-13.686 0.977,7.49 1.283,13.376 10.449,18.125 11.881,6.154 28.377,1.719 35.463,-3.698 17.188,11.208 31.393,-2.218 31.393,-2.218 0,0 16.418,14.943 25.384,0 24.659,16.438 38.098,-0.695 38.098,-0.695 0,0 1.156,8.076 21.914,9.478 20.763,1.406 30.654,-18.725 30.654,-18.725 4.061,5.155 6.125,16.125 16.135,17.198 10.01,1.078 20.015,-5.333 27.604,-13.27 5.653,10.651 11.41,11.481 18.634,14.057 7.219,2.578 21.157,-5.103 27.047,-9.154 7.51,13.52 29.618,12.518 36.108,2.452 0.092,0.705 1.754,2.216 10.496,5.131 3.465,-2.529 4.452,-6.702 8.599,-12.346 -3.736,-1.493 -11.281,-5.224 -11.281,-5.224 -2.222,-12.449 -8.916,-23.995 -16.043,-35.463 l 7.491,-16.414 -14.934,-4.484 c -9.214,19.982 -16.97,37.697 -23.168,49.471 -6.195,11.776 -29.125,12.237 -33.611,2.036 30.029,-22.476 33.353,-57.067 7.445,-53.763 -23.978,3.059 -21.812,45.183 -21.812,45.183 0,0 -8.813,8.566 -20.771,10.06 -11.955,1.496 3.791,-53.263 3.791,-53.263 l -16.414,0 c 0,0 -9.879,39.001 -21.731,51.783 -10.681,11.521 -15.291,4.648 -18.214,3.282 -3.032,-1.413 33.664,-130.213 33.664,-130.213 l -20.959,0.188 -21.909,76.022 c -11.955,-0.242 -25.397,-1.961 -37.357,8.695 -16.065,15.09 -9.856,48.911 -28.436,42.827 -5.978,1.495 10.127,-45.511 10.127,-45.511 -1.091,-7.65 -24.752,-11.138 -36.525,-3.885 -23.355,14.389 -21.223,42.94 -25.615,53.355 -10.35,4.787 -13.217,1.622 -17.307,-8.876 17.201,-20.12 44.053,-121.396 9.68,-122.892 -0.535,-0.021 -1.053,-0.024 -1.571,0.003 m 1.271,24.163 c 0.16,-0.02 0.303,-0.013 0.463,0 7.143,0.581 -14.219,69.508 -14.219,69.508 -2.215,-0.735 3.754,-68.103 13.756,-69.508 m 226.148,66.482 c 3.409,-2.87 5.889,-2.268 6.424,-0.296 0.532,1.969 -12.873,19.611 -12.873,19.611 0.073,-6.635 3.033,-16.446 6.449,-19.315 m -111.344,3.966 c 4.276,-0.121 5.97,-0.735 8.065,0.862 l -6.799,30.098 c -1.49,4.547 -21.752,8.221 -23.994,-2.17 -2.103,-9.746 3.625,-17.365 7.791,-22.595 3.364,-4.222 9.433,-6.04 14.937,-6.195 m -66.628,0.84 c 1.164,-0.023 2.379,0.168 3.607,0.601 l -7.629,27.402 c -3.736,5.231 -13.726,7.481 -14.681,-0.146 -1.241,-9.932 7.455,-27.635 18.703,-27.857 m -186.949,0.022 c 1.976,0.042 3.744,0.521 5.132,1.711 7.397,6.341 0.866,28.354 -6.66,33.384 -9.045,6.044 -27.648,1.802 -27.648,1.802 l 7.398,-28.527 c 0.861,-10e-4 13.212,-8.556 21.778,-8.37 m 419.441,14.194 c 0,0 9.013,19.22 7.396,22.193 -4.027,7.439 -18.222,-0.117 -17.427,-2.637 l 10.031,-19.556 z"
       id="path99" />
  </g>
</svg>
